<?xml version="1.0" encoding="UTF-8"?>
<svg width="252px" height="252px" viewBox="0 0 252 252" version="1.1" xmlns="http://www.w3.org/2000/svg" xmlns:xlink="http://www.w3.org/1999/xlink">
    <!-- Generator: Sketch 50.2 (55047) - http://www.bohemiancoding.com/sketch -->
    <title>Group</title>
    <desc>Created with Sketch.</desc>
    <defs>
        <path d="M0,124.925 C0,193.408 55.515,248.924 124.002,248.924 C192.485,248.924 248,193.408 248,124.925 C248,56.441 192.485,0.924 124.002,0.924 C55.515,0.924 0,56.441 0,124.925 Z" id="path-1"></path>
    </defs>
    <g id="Page-1" stroke="none" stroke-width="1" fill="none" fill-rule="evenodd">
        <g id="Artboard-1">
            <g id="Group" transform="translate(2.000000, 1.000000)">
                <g id="Group-88" transform="translate(0.000000, 0.076000)">
                    <mask id="mask-2" fill="white">
                        <use xlink:href="#path-1"></use>
                    </mask>
                    <g id="Clip-2"></g>
                    <polygon id="Stroke-1" stroke="#170400" stroke-width="2" stroke-linecap="round" stroke-linejoin="round" mask="url(#mask-2)" points="36.016 250.353 80.842 250.353 80.842 162.353 36.016 162.353"></polygon>
                    <path d="M45.9726,62.6816 C46.4316,62.6816 46.8636,62.7776 47.2716,62.9236 C47.2676,62.8416 47.2456,62.7646 47.2456,62.6816 C47.2456,59.8686 49.5276,57.5876 52.3416,57.5876 C52.9396,57.5876 53.5036,57.7096 54.0406,57.9006 C54.4666,56.7616 55.2106,55.7816 56.1606,55.0586 C57.2226,54.2516 58.5426,53.7676 59.9806,53.7676 C63.4976,53.7676 66.3496,56.6176 66.3496,60.1346 C66.3496,60.1956 66.3336,60.2506 66.3316,60.3086 C68.5336,60.8706 70.1696,62.8516 70.1696,65.2286 C70.1696,68.0416 67.8886,70.3226 65.0766,70.3226 L62.5256,70.3226 L56.1606,70.3226 L51.2286,70.3226 L49.6406,70.3226 L45.9726,70.3226 C43.8656,70.3226 42.1546,68.6116 42.1546,66.5026 C42.1546,64.3926 43.8656,62.6816 45.9726,62.6816 Z" id="Stroke-3" stroke="#170400" stroke-width="2" stroke-linecap="round" stroke-linejoin="round" mask="url(#mask-2)"></path>
                    <path d="M212.6504,102.2031 C212.2384,102.2031 211.8514,102.2871 211.4864,102.4191 C211.4904,102.3461 211.5094,102.2761 211.5094,102.2031 C211.5094,99.6801 209.4624,97.6331 206.9394,97.6331 C206.4024,97.6331 205.8964,97.7431 205.4164,97.9141 C205.0334,96.8921 204.3654,96.0141 203.5134,95.3651 C202.5624,94.6411 201.3774,94.2071 200.0874,94.2071 C196.9334,94.2071 194.3774,96.7641 194.3774,99.9181 C194.3774,99.9721 194.3904,100.0211 194.3924,100.0741 C192.4164,100.5781 190.9494,102.3541 190.9494,104.4861 C190.9494,107.0101 192.9964,109.0551 195.5174,109.0551 L197.8064,109.0551 L203.5134,109.0551 L207.9374,109.0551 L209.3614,109.0551 L212.6504,109.0551 C214.5414,109.0551 216.0764,107.5191 216.0764,105.6291 C216.0764,103.7371 214.5414,102.2031 212.6504,102.2031 Z" id="Stroke-4" stroke="#170400" stroke-width="2" stroke-linecap="round" stroke-linejoin="round" mask="url(#mask-2)"></path>
                    <path d="M207.9375,109.0546 L238.9375,109.0546" id="Stroke-5" stroke="#170400" stroke-width="2" stroke-linecap="round" stroke-linejoin="round" mask="url(#mask-2)"></path>
                    <path d="M204.2695,102.6572 L235.2695,102.6572" id="Stroke-6" stroke="#170400" stroke-width="2" stroke-linecap="round" stroke-linejoin="round" mask="url(#mask-2)"></path>
                    <path d="M94.2695,81.9902 L68.9375,81.9902" id="Stroke-7" stroke="#170400" stroke-width="2" stroke-linecap="round" stroke-linejoin="round" mask="url(#mask-2)"></path>
                    <path d="M19.6035,85.3242 L7.2715,85.3242" id="Stroke-8" stroke="#170400" stroke-width="2" stroke-linecap="round" stroke-linejoin="round" mask="url(#mask-2)"></path>
                    <path d="M61.6035,98.6562 L15.6035,98.6562" id="Stroke-9" stroke="#170400" stroke-width="2" stroke-linecap="round" stroke-linejoin="round" mask="url(#mask-2)"></path>
                    <polygon id="Stroke-10" stroke="#170400" stroke-width="2" stroke-linecap="round" stroke-linejoin="round" mask="url(#mask-2)" points="123.5898 58.6982 121.5568 75.2482 125.7828 74.8982"></polygon>
                    <polyline id="Stroke-11" stroke="#170400" stroke-width="2" stroke-linecap="round" stroke-linejoin="round" mask="url(#mask-2)" points="129.1308 75.248 131.7948 76.019 140.4898 65.221 129.1308 74.898"></polyline>
                    <polyline id="Stroke-12" stroke="#170400" stroke-width="2" stroke-linecap="round" stroke-linejoin="round" mask="url(#mask-2)" points="134.25 77.7724 134.811 79.3164 147.014 75.2484 133.828 77.2824"></polyline>
                    <polygon id="Stroke-13" stroke="#170400" stroke-width="2" stroke-linecap="round" stroke-linejoin="round" mask="url(#mask-2)" points="119.4531 74.3369 108.0211 65.2209 116.8571 76.5799"></polygon>
                    <polygon id="Stroke-14" stroke="#170400" stroke-width="2" stroke-linecap="round" stroke-linejoin="round" mask="url(#mask-2)" points="115.0332 77.913 114.1912 80.017 103.8142 75.248"></polygon>
                    <g id="Group-17" mask="url(#mask-2)">
                        <g transform="translate(89.000000, 34.000000)">
                            <path d="M2.5175,0.7851 L6.1635,0.7851 L9.5315,10.1351 L9.5315,16.5861 L16.0765,49.3141 L23.6505,61.3751 L25.0525,52.6801 L23.5095,49.1731 C23.5095,49.1731 22.9495,38.0921 35.9925,38.0921 C49.0375,38.0921 47.3535,47.9101 47.3535,51.9781 L48.3335,60.5331 L46.7925,66.2841 L50.4395,74.6991 L57.1715,80.4491 L58.4335,86.3411 L62.0805,95.3171 L67.5505,99.6651 L85.7835,110.3251 L80.1735,121.4051 L76.5275,123.6491 L70.0745,140.3401 L66.9905,143.8461 L67.5505,173.3001 L65.4455,175.9651 L68.1115,228.0001 L1.4905,228.0001 L10.1855,215.2371 L8.0815,206.2611 L10.6055,200.5101 L8.7835,174.9831 L12.0075,166.9881 L10.6055,151.7011 L10.8865,127.0151 L4.7145,123.9301 L11.7285,101.9001 L7.3805,93.2141 L7.5215,81.2911 L2.3315,76.5221 L0.7875,60.1131 L6.3985,50.8551 L2.5335,23.3651" id="Fill-15" stroke="none" fill="#FFFFFF" fill-rule="evenodd"></path>
                            <path d="M2.5175,0.7851 L6.1635,0.7851 L9.5315,10.1351 L9.5315,16.5861 L16.0765,49.3141 L23.6505,61.3751 L25.0525,52.6801 L23.5095,49.1731 C23.5095,49.1731 22.9495,38.0921 35.9925,38.0921 C49.0375,38.0921 47.3535,47.9101 47.3535,51.9781 L48.3335,60.5331 L46.7925,66.2841 L50.4395,74.6991 L57.1715,80.4491 L58.4335,86.3411 L62.0805,95.3171 L67.5505,99.6651 L85.7835,110.3251 L80.1735,121.4051 L76.5275,123.6491 L70.0745,140.3401 L66.9905,143.8461 L67.5505,173.3001 L65.4455,175.9651 L68.1115,228.0001 L1.4905,228.0001 L10.1855,215.2371 L8.0815,206.2611 L10.6055,200.5101 L8.7835,174.9831 L12.0075,166.9881 L10.6055,151.7011 L10.8865,127.0151 L4.7145,123.9301 L11.7285,101.9001 L7.3805,93.2141 L7.5215,81.2911 L2.3315,76.5221 L0.7875,60.1131 L6.3985,50.8551 L2.5335,23.3651" id="Stroke-16" stroke="#170400" stroke-width="2" fill="none" stroke-linecap="round" stroke-linejoin="round"></path>
                        </g>
                    </g>
                    <polygon id="Stroke-18" stroke="#170400" stroke-width="2" stroke-linecap="round" stroke-linejoin="round" mask="url(#mask-2)" points="81.4 28.894 99.406 28.894 99.406 22.022 81.4 22.022"></polygon>
                    <polygon id="Stroke-19" stroke="#170400" stroke-width="2" stroke-linecap="round" stroke-linejoin="round" mask="url(#mask-2)" points="87.709 21.413 93.098 21.413 93.098 17.85 87.709 17.85"></polygon>
                    <path d="M87.2949,17.8496 C87.2949,17.8496 85.2749,17.9376 86.0569,15.8516 C86.8379,13.7646 89.7929,12.8956 89.2719,10.2016 C89.2719,10.2016 91.0979,13.0696 90.8359,14.0256 C90.8359,14.0256 93.6619,6.9546 92.6839,3.9996 C92.6839,3.9996 97.3889,10.1156 97.1819,14.1136 C96.9669,18.2656 92.3149,17.8496 92.3149,17.8496 L87.2949,17.8496 Z" id="Stroke-20" stroke="#170400" stroke-width="2" stroke-linecap="round" stroke-linejoin="round" mask="url(#mask-2)"></path>
                    <polygon id="Stroke-21" stroke="#170400" stroke-width="2" stroke-linecap="round" stroke-linejoin="round" mask="url(#mask-2)" points="87.355 57.365 93.453 57.365 93.453 28.893 87.355 28.893"></polygon>
                    <path d="M89.9726,38.5537 C89.9726,39.3827 89.4276,40.0547 88.7556,40.0547 L84.5606,40.0547 C83.8866,40.0547 83.3416,39.3827 83.3416,38.5537 C83.3416,37.7237 83.8866,37.0517 84.5606,37.0517 L88.7556,37.0517 C89.4276,37.0517 89.9726,37.7237 89.9726,38.5537" id="Fill-22" fill="#FFFFFF" mask="url(#mask-2)"></path>
                    <path d="M89.9726,38.5537 C89.9726,39.3827 89.4276,40.0547 88.7556,40.0547 L84.5606,40.0547 C83.8866,40.0547 83.3416,39.3827 83.3416,38.5537 C83.3416,37.7237 83.8866,37.0517 84.5606,37.0517 L88.7556,37.0517 C89.4276,37.0517 89.9726,37.7237 89.9726,38.5537 Z" id="Stroke-23" stroke="#170400" stroke-width="2" stroke-linecap="round" stroke-linejoin="round" mask="url(#mask-2)"></path>
                    <path d="M89.9726,41.5566 C89.9726,42.3846 89.4276,43.0576 88.7556,43.0576 L84.5606,43.0576 C83.8866,43.0576 83.3416,42.3846 83.3416,41.5566 C83.3416,40.7266 83.8866,40.0546 84.5606,40.0546 L88.7556,40.0546 C89.4276,40.0546 89.9726,40.7266 89.9726,41.5566" id="Fill-24" fill="#FFFFFF" mask="url(#mask-2)"></path>
                    <path d="M89.9726,41.5566 C89.9726,42.3846 89.4276,43.0576 88.7556,43.0576 L84.5606,43.0576 C83.8866,43.0576 83.3416,42.3846 83.3416,41.5566 C83.3416,40.7266 83.8866,40.0546 84.5606,40.0546 L88.7556,40.0546 C89.4276,40.0546 89.9726,40.7266 89.9726,41.5566 Z" id="Stroke-25" stroke="#170400" stroke-width="2" stroke-linecap="round" stroke-linejoin="round" mask="url(#mask-2)"></path>
                    <path d="M89.9726,44.6308 C89.9726,45.4588 89.4276,46.1328 88.7556,46.1328 L84.5606,46.1328 C83.8866,46.1328 83.3416,45.4588 83.3416,44.6308 C83.3416,43.8008 83.8866,43.1288 84.5606,43.1288 L88.7556,43.1288 C89.4276,43.1288 89.9726,43.8008 89.9726,44.6308" id="Fill-26" fill="#FFFFFF" mask="url(#mask-2)"></path>
                    <path d="M89.9726,44.6308 C89.9726,45.4588 89.4276,46.1328 88.7556,46.1328 L84.5606,46.1328 C83.8866,46.1328 83.3416,45.4588 83.3416,44.6308 C83.3416,43.8008 83.8866,43.1288 84.5606,43.1288 L88.7556,43.1288 C89.4276,43.1288 89.9726,43.8008 89.9726,44.6308 Z" id="Stroke-27" stroke="#170400" stroke-width="2" stroke-linecap="round" stroke-linejoin="round" mask="url(#mask-2)"></path>
                    <g id="Group-30" mask="url(#mask-2)">
                        <g transform="translate(153.000000, 132.000000)">
                            <polyline id="Fill-28" stroke="none" fill="#FFFFFF" fill-rule="evenodd" points="19.8965 0.2871 21.1585 3.7471 3.7915 31.7991 0.8925 31.0741"></polyline>
                            <polyline id="Stroke-29" stroke="#170400" stroke-width="2" fill="none" stroke-linecap="round" stroke-linejoin="round" points="19.8965 0.2871 21.1585 3.7471 3.7915 31.7991 0.8925 31.0741"></polyline>
                        </g>
                    </g>
                    <path d="M116.8574,86.8203 C116.8574,86.8203 126.1154,83.8753 126.3964,81.2093 C126.3964,81.2093 131.2464,86.5393 134.7114,86.8203" id="Stroke-31" stroke="#170400" stroke-width="2" stroke-linecap="round" stroke-linejoin="round" mask="url(#mask-2)"></path>
                    <path d="M114.1914,83.1728 C114.1914,83.1728 122.8304,73.6348 134.7114,81.7708" id="Stroke-32" stroke="#170400" stroke-width="2" stroke-linecap="round" stroke-linejoin="round" mask="url(#mask-2)"></path>
                    <path d="M149.2558,83.1728 L136.0718,83.1728" id="Stroke-33" stroke="#170400" stroke-width="2" stroke-linecap="round" stroke-linejoin="round" mask="url(#mask-2)"></path>
                    <path d="M112.5254,82.4179 L104.9764,82.8139" id="Stroke-34" stroke="#170400" stroke-width="2" stroke-linecap="round" stroke-linejoin="round" mask="url(#mask-2)"></path>
                    <polyline id="Stroke-35" stroke="#170400" stroke-width="2" stroke-linecap="round" stroke-linejoin="round" mask="url(#mask-2)" points="116.8574 91.3076 122.8884 101.1256 129.1304 101.1256 134.7114 89.7646"></polyline>
                    <polyline id="Stroke-36" stroke="#170400" stroke-width="2" stroke-linecap="round" stroke-linejoin="round" mask="url(#mask-2)" points="132.3789 94.5117 133.8279 107.0637 127.8909 107.0637"></polyline>
                    <path d="M137.4765,118.2373 L144.2905,145.6013" id="Stroke-37" stroke="#170400" stroke-width="2" stroke-linecap="round" stroke-linejoin="round" mask="url(#mask-2)"></path>
                    <path d="M127.1328,135.9003 L111.3088,193.3123" id="Stroke-38" stroke="#170400" stroke-width="2" stroke-linecap="round" stroke-linejoin="round" mask="url(#mask-2)"></path>
                    <path d="M117.1211,206.7246 L99.5431,235.5256" id="Stroke-39" stroke="#170400" stroke-width="2" stroke-linecap="round" stroke-linejoin="round" mask="url(#mask-2)"></path>
                    <path d="M145.3769,166.5312 L150.9859,203.7482" id="Stroke-40" stroke="#170400" stroke-width="2" stroke-linecap="round" stroke-linejoin="round" mask="url(#mask-2)"></path>
                    <path d="M150.9863,203.748 L129.6683,215.342" id="Stroke-41" stroke="#170400" stroke-width="2" stroke-linecap="round" stroke-linejoin="round" mask="url(#mask-2)"></path>
                    <path d="M134.7109,216.8378 L134.7109,226.7488" id="Stroke-42" stroke="#170400" stroke-width="2" stroke-linecap="round" stroke-linejoin="round" mask="url(#mask-2)"></path>
                    <path d="M134.7109,226.749 L109.2829,241.709" id="Stroke-43" stroke="#170400" stroke-width="2" stroke-linecap="round" stroke-linejoin="round" mask="url(#mask-2)"></path>
                    <path d="M109.2832,241.7089 L101.4292,256.2969" id="Stroke-44" stroke="#170400" stroke-width="2" stroke-linecap="round" stroke-linejoin="round" mask="url(#mask-2)"></path>
                    <path d="M93.7148,157.9296 L122.9468,132.2866" id="Stroke-45" stroke="#170400" stroke-width="2" stroke-linecap="round" stroke-linejoin="round" mask="url(#mask-2)"></path>
                    <path d="M101.4297,200.1943 L112.2777,190.2833" id="Stroke-46" stroke="#170400" stroke-width="2" stroke-linecap="round" stroke-linejoin="round" mask="url(#mask-2)"></path>
                    <polyline id="Stroke-47" stroke="#170400" stroke-width="2" stroke-linecap="round" stroke-linejoin="round" mask="url(#mask-2)" points="96.3808 127.2138 105.9178 120.3418 110.5938 107.0638"></polyline>
                    <polyline id="Stroke-48" stroke="#170400" stroke-width="2" stroke-linecap="round" stroke-linejoin="round" mask="url(#mask-2)" points="91.332 110.5224 100.309 107.9984 103.486 102.0134"></polyline>
                    <polyline id="Stroke-49" stroke="#170400" stroke-width="2" stroke-linecap="round" stroke-linejoin="round" mask="url(#mask-2)" points="116.1562 97.7597 124.4532 108.8397 132.2852 109.5407"></polyline>
                    <polyline id="Stroke-50" stroke="#170400" stroke-width="2" stroke-linecap="round" stroke-linejoin="round" mask="url(#mask-2)" points="129.1308 86.8203 125.7828 88.3613 125.7828 93.4123"></polyline>
                    <polygon id="Fill-51" fill="#FFFFFF" mask="url(#mask-2)" points="158.8711 124.5742 172.8961 132.2872 153.8921 163.0742 140.6851 150.8022"></polygon>
                    <polygon id="Stroke-52" stroke="#170400" stroke-width="2" stroke-linecap="round" stroke-linejoin="round" mask="url(#mask-2)" points="158.8711 124.5742 172.8961 132.2872 153.8921 163.0742 140.6851 150.8022"></polygon>
                    <path d="M169.4394,146.5253 C168.9414,147.1873 168.1034,147.3993 167.5644,146.9963 L164.2074,144.4793 C163.6684,144.0753 163.6344,143.2113 164.1324,142.5473 C164.6304,141.8833 165.4684,141.6713 166.0074,142.0763 L169.3654,144.5933 C169.9044,144.9963 169.9374,145.8613 169.4394,146.5253" id="Fill-53" fill="#FFFFFF" mask="url(#mask-2)"></path>
                    <path d="M169.4394,146.5253 C168.9414,147.1873 168.1034,147.3993 167.5644,146.9963 L164.2074,144.4793 C163.6684,144.0753 163.6344,143.2113 164.1324,142.5473 C164.6304,141.8833 165.4684,141.6713 166.0074,142.0763 L169.3654,144.5933 C169.9044,144.9963 169.9374,145.8613 169.4394,146.5253 Z" id="Stroke-54" stroke="#170400" stroke-width="2" stroke-linecap="round" stroke-linejoin="round" mask="url(#mask-2)"></path>
                    <path d="M167.4258,148.8398 C166.9278,149.5028 166.0898,149.7138 165.5528,149.3108 L162.1938,146.7938 C161.6548,146.3898 161.6228,145.5258 162.1188,144.8618 C162.6168,144.1978 163.4568,143.9868 163.9938,144.3908 L167.3518,146.9078 C167.8908,147.3118 167.9238,148.1758 167.4258,148.8398" id="Fill-55" fill="#FFFFFF" mask="url(#mask-2)"></path>
                    <path d="M167.4258,148.8398 C166.9278,149.5028 166.0898,149.7138 165.5528,149.3108 L162.1938,146.7938 C161.6548,146.3898 161.6228,145.5258 162.1188,144.8618 C162.6168,144.1978 163.4568,143.9868 163.9938,144.3908 L167.3518,146.9078 C167.8908,147.3118 167.9238,148.1758 167.4258,148.8398 Z" id="Stroke-56" stroke="#170400" stroke-width="2" stroke-linecap="round" stroke-linejoin="round" mask="url(#mask-2)"></path>
                    <path d="M165.4961,151.207 C165.0001,151.871 164.1601,152.081 163.6231,151.679 L160.2661,149.162 C159.7251,148.757 159.6931,147.893 160.1911,147.229 C160.6891,146.565 161.5271,146.355 162.0661,146.759 L165.4241,149.275 C165.9611,149.679 165.9941,150.543 165.4961,151.207" id="Fill-57" fill="#FFFFFF" mask="url(#mask-2)"></path>
                    <path d="M165.4961,151.207 C165.0001,151.871 164.1601,152.081 163.6231,151.679 L160.2661,149.162 C159.7251,148.757 159.6931,147.893 160.1911,147.229 C160.6891,146.565 161.5271,146.355 162.0661,146.759 L165.4241,149.275 C165.9611,149.679 165.9941,150.543 165.4961,151.207 Z" id="Stroke-58" stroke="#170400" stroke-width="2" stroke-linecap="round" stroke-linejoin="round" mask="url(#mask-2)"></path>
                    <polygon id="Stroke-59" stroke="#170400" stroke-width="2" stroke-linecap="round" stroke-linejoin="round" mask="url(#mask-2)" points="21.494 216.984 29.162 216.984 29.162 153.318 21.494 153.318"></polygon>
                    <path d="M36.3906,169.3183 L80.4666,169.3183" id="Stroke-60" stroke="#170400" stroke-width="2" stroke-linecap="round" stroke-linejoin="round" mask="url(#mask-2)"></path>
                    <polygon id="Stroke-61" stroke="#170400" stroke-width="2" stroke-linecap="round" stroke-linejoin="round" mask="url(#mask-2)" points="40.262 210.318 48.262 210.318 48.262 175.318 40.262 175.318"></polygon>
                    <polygon id="Stroke-62" stroke="#170400" stroke-width="2" stroke-linecap="round" stroke-linejoin="round" mask="url(#mask-2)" points="54.428 210.318 62.428 210.318 62.428 175.318 54.428 175.318"></polygon>
                    <polygon id="Stroke-63" stroke="#170400" stroke-width="2" stroke-linecap="round" stroke-linejoin="round" mask="url(#mask-2)" points="68.596 210.318 76.596 210.318 76.596 175.318 68.596 175.318"></polygon>
                    <polygon id="Stroke-64" stroke="#170400" stroke-width="2" stroke-linecap="round" stroke-linejoin="round" mask="url(#mask-2)" points="183.4941 233.6513 170.8281 233.6513 170.8281 173.6513 177.1621 164.3183 183.4941 173.6513"></polygon>
                    <polygon id="Stroke-65" stroke="#170400" stroke-width="2" stroke-linecap="round" stroke-linejoin="round" mask="url(#mask-2)" points="187.828 237.318 201.162 237.318 201.162 157.984 187.828 157.984"></polygon>
                    <polygon id="Stroke-66" stroke="#170400" stroke-width="2" stroke-linecap="round" stroke-linejoin="round" mask="url(#mask-2)" points="207.162 231.318 245.162 231.318 245.162 173.318 207.162 173.318"></polygon>
                    <path d="M25.1621,152.5683 L25.1621,139.5683" id="Stroke-67" stroke="#170400" stroke-width="2" stroke-linecap="round" stroke-linejoin="round" mask="url(#mask-2)"></path>
                    <path d="M213.1621,172.5683 L213.1621,163.5683" id="Stroke-68" stroke="#170400" stroke-width="2" stroke-linecap="round" stroke-linejoin="round" mask="url(#mask-2)"></path>
                    <path d="M170.8281,184.0673 L182.9121,184.0673" id="Stroke-69" stroke="#170400" stroke-width="2" stroke-linecap="round" stroke-linejoin="round" mask="url(#mask-2)"></path>
                    <path d="M188.4121,164.0683 L197.4121,164.0683" id="Stroke-70" stroke="#170400" stroke-width="2" stroke-linecap="round" stroke-linejoin="round" mask="url(#mask-2)"></path>
                    <path d="M188.4121,171.0683 L197.4121,171.0683" id="Stroke-71" stroke="#170400" stroke-width="2" stroke-linecap="round" stroke-linejoin="round" mask="url(#mask-2)"></path>
                    <path d="M188.4121,178.0683 L197.4121,178.0683" id="Stroke-72" stroke="#170400" stroke-width="2" stroke-linecap="round" stroke-linejoin="round" mask="url(#mask-2)"></path>
                    <path d="M188.4121,185.0683 L197.4121,185.0683" id="Stroke-73" stroke="#170400" stroke-width="2" stroke-linecap="round" stroke-linejoin="round" mask="url(#mask-2)"></path>
                    <path d="M188.4121,192.0683 L197.4121,192.0683" id="Stroke-74" stroke="#170400" stroke-width="2" stroke-linecap="round" stroke-linejoin="round" mask="url(#mask-2)"></path>
                    <path d="M188.4121,199.0683 L197.4121,199.0683" id="Stroke-75" stroke="#170400" stroke-width="2" stroke-linecap="round" stroke-linejoin="round" mask="url(#mask-2)"></path>
                    <path d="M188.4121,206.0683 L197.4121,206.0683" id="Stroke-76" stroke="#170400" stroke-width="2" stroke-linecap="round" stroke-linejoin="round" mask="url(#mask-2)"></path>
                    <path d="M188.4121,213.0683 L197.4121,213.0683" id="Stroke-77" stroke="#170400" stroke-width="2" stroke-linecap="round" stroke-linejoin="round" mask="url(#mask-2)"></path>
                    <path d="M213.5468,177.7148 L213.5468,186.9258" id="Stroke-78" stroke="#170400" stroke-width="2" stroke-linecap="round" stroke-linejoin="round" mask="url(#mask-2)"></path>
                    <path d="M219.3027,177.7148 L219.3027,186.9258" id="Stroke-79" stroke="#170400" stroke-width="2" stroke-linecap="round" stroke-linejoin="round" mask="url(#mask-2)"></path>
                    <path d="M225.0605,177.7148 L225.0605,186.9258" id="Stroke-80" stroke="#170400" stroke-width="2" stroke-linecap="round" stroke-linejoin="round" mask="url(#mask-2)"></path>
                    <path d="M230.8164,177.7148 L230.8164,186.9258" id="Stroke-81" stroke="#170400" stroke-width="2" stroke-linecap="round" stroke-linejoin="round" mask="url(#mask-2)"></path>
                    <path d="M236.5742,177.7148 L236.5742,186.9258" id="Stroke-82" stroke="#170400" stroke-width="2" stroke-linecap="round" stroke-linejoin="round" mask="url(#mask-2)"></path>
                    <path d="M213.5468,194.122 L213.5468,203.333" id="Stroke-83" stroke="#170400" stroke-width="2" stroke-linecap="round" stroke-linejoin="round" mask="url(#mask-2)"></path>
                    <path d="M219.3027,194.122 L219.3027,203.333" id="Stroke-84" stroke="#170400" stroke-width="2" stroke-linecap="round" stroke-linejoin="round" mask="url(#mask-2)"></path>
                    <path d="M225.0605,194.122 L225.0605,203.333" id="Stroke-85" stroke="#170400" stroke-width="2" stroke-linecap="round" stroke-linejoin="round" mask="url(#mask-2)"></path>
                    <path d="M230.8164,194.122 L230.8164,203.333" id="Stroke-86" stroke="#170400" stroke-width="2" stroke-linecap="round" stroke-linejoin="round" mask="url(#mask-2)"></path>
                    <path d="M236.5742,194.122 L236.5742,203.333" id="Stroke-87" stroke="#170400" stroke-width="2" stroke-linecap="round" stroke-linejoin="round" mask="url(#mask-2)"></path>
                </g>
                <g id="Group-93" transform="translate(0.000000, 0.076000)" stroke="#170400">
                    <path d="M248,124.9248 C248,193.4078 192.484,248.9238 124.002,248.9238 C55.516,248.9238 0,193.4078 0,124.9248 C0,56.4418 55.516,0.9248 124.002,0.9248 C192.484,0.9248 248,56.4418 248,124.9248 Z" id="Stroke-89"></path>
                    <path d="M247.998,124.9248 C247.998,193.4078 192.482,248.9248 124,248.9248 C55.516,248.9248 0,193.4078 0,124.9248 C0,56.4418 55.516,0.9238 124,0.9238 C192.482,0.9238 247.998,56.4418 247.998,124.9248 Z" id="Stroke-91" stroke-width="4" stroke-linecap="round" stroke-linejoin="round"></path>
                </g>
            </g>
        </g>
    </g>
</svg>